<?xml version="1.0" standalone="no"?>
<!DOCTYPE svg PUBLIC "-//W3C//DTD SVG 20010904//EN"
 "http://www.w3.org/TR/2001/REC-SVG-20010904/DTD/svg10.dtd">
<svg version="1.0" xmlns="http://www.w3.org/2000/svg"
 width="256.000000pt" height="256.000000pt" viewBox="0 0 256.000000 256.000000"
 preserveAspectRatio="xMidYMid meet">
<metadata>
Created by potrace 1.14, written by Peter Selinger 2001-2017
</metadata>
<g transform="translate(0.000000,256.000000) scale(0.100000,-0.100000)"
fill="#000000" stroke="none">
<path d="M750 2293 c-106 -17 -241 -93 -335 -188 -123 -124 -224 -314 -252
-475 -9 -57 -10 -234 0 -278 54 -243 274 -476 530 -563 75 -25 77 -26 197 -46
52 -9 99 -21 103 -27 10 -14 3 -74 -34 -305 -36 -224 -39 -289 -16 -324 24
-37 93 -54 186 -45 132 12 156 34 148 136 -3 34 -8 65 -11 70 -3 5 -8 23 -11
40 -3 18 -13 62 -21 99 -18 76 -28 281 -14 303 7 12 38 15 137 16 131 2 302
11 338 18 11 2 45 7 75 11 63 8 64 9 145 30 299 80 475 211 558 415 67 166 51
351 -49 553 -111 224 -282 371 -476 411 -97 19 -238 14 -334 -15 -43 -12 -81
-25 -84 -28 -3 -3 -23 -15 -45 -26 -63 -32 -177 -151 -229 -240 -63 -109 -127
-279 -157 -420 -7 -33 -13 -62 -14 -65 -2 -11 -15 -76 -20 -99 -2 -13 -7 -49
-10 -80 -4 -31 -8 -63 -10 -71 -3 -8 -7 -46 -10 -85 -3 -38 -7 -79 -10 -90 -2
-11 -4 -23 -4 -27 -2 -19 -169 58 -241 111 -227 166 -300 561 -150 809 53 88
173 153 290 156 32 1 91 -7 140 -21 47 -13 98 -23 114 -23 30 0 55 23 56 53 1
88 -191 278 -305 302 -39 8 -143 13 -175 8z m1142 -501 c39 -17 138 -114 138
-135 0 -3 10 -26 22 -53 12 -27 23 -53 24 -59 2 -5 7 -24 12 -40 10 -33 9
-174 -1 -214 -31 -119 -188 -270 -352 -338 -54 -23 -188 -60 -245 -69 -19 -2
-46 -7 -60 -9 -14 -3 -60 -7 -103 -10 -61 -5 -78 -3 -82 8 -3 7 2 49 11 93 9
43 18 90 21 104 10 58 46 191 74 277 75 227 183 380 314 443 50 24 69 28 121
25 34 -2 82 -12 106 -23z"/>
</g>
</svg>
